<?xml version="1.0" encoding="UTF-8"?>
<svg width="19px" height="19px" viewBox="0 0 19 19" version="1.1" xmlns="http://www.w3.org/2000/svg" xmlns:xlink="http://www.w3.org/1999/xlink">
    <!-- Generator: Sketch 54.1 (76490) - https://sketchapp.com -->
    <title>ico-help</title>
    <desc>Created with Sketch.</desc>
    <g id="ico-help" stroke="none" stroke-width="1" fill="none" fill-rule="evenodd">
        <rect fill="#000000" x="0" y="0" width="19" height="19"></rect>
        <path d="M9.5,0 C14.7681818,0 19,4.23181818 19,9.5 C19,14.7681818 14.7681818,19 9.5,19 C4.23181818,19 0,14.7681818 0,9.5 C0,4.23181818 4.23181818,0 9.5,0 Z M1.72727273,9.5 C1.72727273,11.3136364 2.33181818,13.0409091 3.45454545,14.3363636 L5.95909091,11.8318182 C5.44090909,11.2272727 5.18181818,10.3636364 5.18181818,9.5 C5.18181818,8.63636364 5.44090909,7.77272727 5.87272727,7.08181818 L3.45454545,4.66363636 C2.33181818,5.95909091 1.72727273,7.68636364 1.72727273,9.5 Z M7.08181818,5.87272727 C7.77272727,5.44090909 8.63636364,5.18181818 9.5,5.18181818 C10.3636364,5.18181818 11.2272727,5.44090909 11.9181818,5.87272727 L14.3363636,3.45454545 C13.0409091,2.41818182 11.3136364,1.72727273 9.5,1.72727273 C7.68636364,1.72727273 5.95909091,2.33181818 4.66363636,3.45454545 L7.08181818,5.87272727 Z M13.1272727,7.08181818 C13.5590909,7.77272727 13.8181818,8.63636364 13.8181818,9.5 C13.8181818,10.3636364 13.5590909,11.2272727 13.1272727,11.9181818 L15.6318182,14.4227273 C16.6681818,13.1272727 17.3590909,11.4 17.3590909,9.58636364 C17.3590909,7.77272727 16.7545455,6.04545455 15.6318182,4.75 L13.1272727,7.08181818 Z M11.9181818,13.1272727 C11.2272727,13.5590909 10.3636364,13.8181818 9.5,13.8181818 C8.63636364,13.8181818 7.77272727,13.5590909 7.08181818,13.1272727 L4.66363636,15.5454545 C5.95909091,16.5818182 7.68636364,17.2727273 9.5,17.2727273 C11.3136364,17.2727273 13.0409091,16.6681818 14.3363636,15.5454545 L11.9181818,13.1272727 Z M9.5,12.0909091 C10.9681818,12.0909091 12.0909091,10.9681818 12.0909091,9.5 C12.0909091,8.03181818 10.9681818,6.90909091 9.5,6.90909091 C8.03181818,6.90909091 6.90909091,8.03181818 6.90909091,9.5 C6.90909091,10.9681818 8.03181818,12.0909091 9.5,12.0909091 Z" fill="#5F6274" fill-rule="nonzero"></path>
    </g>
</svg>