<?xml version="1.0" encoding="UTF-8"?>
<svg width="19px" height="19px" viewBox="0 0 19 19" version="1.1" xmlns="http://www.w3.org/2000/svg" xmlns:xlink="http://www.w3.org/1999/xlink">
    <!-- Generator: Sketch 54.1 (76490) - https://sketchapp.com -->
    <title>ico-day</title>
    <desc>Created with Sketch.</desc>
    <g id="ico-day" stroke="none" stroke-width="1" fill="none" fill-rule="evenodd">
        <rect fill="#000000" x="0" y="0" width="19" height="19"></rect>
        <path d="M10.5619562,16.7254889 C10.5619562,15.5507311 8.68846629,15.5507311 8.68846629,16.7254889 L8.68846629,18.0591908 C8.68846629,19.2976849 10.5619562,19.3294208 10.5619562,18.0591908 L10.5619562,16.7254889 L10.5619562,16.7254889 Z M9.54587093,4.46934261 C6.81497635,4.46934261 4.52865215,6.75538643 4.52865215,9.48626201 C4.52865215,12.1851372 6.81497635,14.4714455 9.54587093,14.4714455 C12.3717095,14.4714455 14.5308246,12.1851372 14.5308246,9.48626201 C14.5305602,6.69165014 12.371445,4.46934261 9.54587093,4.46934261 L9.54587093,4.46934261 Z M6.78297574,9.48599754 C6.81471188,5.86598739 12.3079727,5.86598739 12.2762366,9.48599754 C12.2445004,13.2329514 6.7512396,13.0425359 6.78297574,9.48599754 L6.78297574,9.48599754 Z M10.5619562,0.88106837 C10.5619562,-0.293689457 8.68846629,-0.293689457 8.68846629,0.88106837 L8.68846629,2.21450578 C8.68846629,3.4529999 10.5619562,3.48473582 10.5619562,2.21450578 L10.5619562,0.88106837 L10.5619562,0.88106837 Z M2.27432855,10.3433962 C3.44909456,10.3433962 3.44909456,8.47018376 2.27432855,8.47018376 L0.940617401,8.47018376 C-0.297620875,8.47018376 -0.329357012,10.3433962 0.940617401,10.3433962 L2.27432855,10.3433962 Z M18.1191238,10.3433962 C19.2936254,10.3433962 19.2936254,8.47018376 18.1191238,8.47018376 L16.7854127,8.47018376 C15.5466455,8.47018376 15.5151738,10.3433962 16.7854127,10.3433962 L18.1191238,10.3433962 Z M3.67124752,5.04085357 C4.52865215,5.86625185 5.83062716,4.53281444 5.00495867,3.7071517 L4.05234563,2.7862812 C3.19494099,1.89741108 1.82975817,3.19937704 2.75063508,4.08824715 L3.67124752,5.04085357 Z M14.8801866,16.2494502 C15.7058551,17.0748485 17.0395663,15.7414111 16.2136333,14.9157483 L15.2610203,13.9631419 C14.4036156,13.1060077 13.0384328,14.4077092 13.9593097,15.2965793 L14.8801866,16.2494502 Z M14.0545181,3.67541578 C13.2291141,4.53281444 14.5628252,5.83451594 15.3882293,5.00911765 L16.3408423,4.08824715 C17.1982469,3.19937704 15.8962719,1.86567517 15.0071312,2.75454528 L14.0545181,3.67541578 Z M2.84584349,14.8837479 C2.02017499,15.7411466 3.35388615,17.0431126 4.17929017,16.2174498 L5.13190322,15.2645789 C5.98930785,14.4074447 4.68733283,13.0422714 3.79819206,13.9628774 L2.84584349,14.8837479 Z" fill="#5F6274" fill-rule="nonzero"></path>
    </g>
</svg>