<svg width="144" height="143" xmlns="http://www.w3.org/2000/svg" xmlns:xlink="http://www.w3.org/1999/xlink" class="purple">
    <defs>
    <circle id="path-1" cx="87.631" cy="87.5" r="71.5"/>
    <linearGradient x1="50%" y1="0%" x2="50%" y2="100%" id="linearGradient-3">
        <stop stop-color="#FFF" stop-opacity=".421" offset="0%"/>
        <stop stop-color="#FFF" stop-opacity="0" offset="100%"/>
    </linearGradient>
    <linearGradient x1="50%" y1="0%" x2="50%" y2="100%" id="linearGradient-4">
        <stop stop-color="#FFF" stop-opacity=".178" offset="0%"/>
        <stop stop-color="#FFF" stop-opacity="0" offset="100%"/>
    </linearGradient>
    <linearGradient x1="50%" y1="0%" x2="50%" y2="100%" id="linearGradient-5">
        <stop stop-color="#FFF" stop-opacity=".509" offset="0%"/>
        <stop stop-color="#FFF" stop-opacity="0" offset="100%"/>
    </linearGradient>
    </defs>
    <g id="Page-1" fill="none" fill-rule="evenodd">
    <g id="Group-Copy" transform="translate(-16 -16)">
        <mask id="mask-2" fill="#fff">
        <use xlink:href="#path-1"/>
        </mask>
        <use id="bg" fill="#272747" xlink:href="#path-1"/>
        <ellipse id="ground" opacity=".723" mask="url(#mask-2)" cx="93.131" cy="133.5" rx="70" ry="26.5"/>
        <path id="light-1" fill="url(#linearGradient-3)" style="mix-blend-mode:overlay" opacity=".566" mask="url(#mask-2)" d="M48.63 0h51l-25.5 127.708h-51z"/>
        <path id="light-2" fill="url(#linearGradient-4)" style="mix-blend-mode:overlay" opacity=".566" mask="url(#mask-2)" d="M50.811 2.146h29.75l-23.11 127.708H27.7z"/>
        <path id="light-3" fill="url(#linearGradient-5)" style="mix-blend-mode:overlay" opacity=".566" mask="url(#mask-2)" d="M114.658 3.146h21.526l-21.526 127.708H93.13z"/>
        <g id="sw-right-back" mask="url(#mask-2)">
        <g id="Rectangle">
            <path d="M16.568 64.572c1.6-8.09 16.774-15.382 19.544-31.036 1.23-6.95-3.118-18.13-13.044-33.536 4.938 4.382 8.363 7.966 10.274 10.75 6.737 9.816 10.311 20.852 9.56 27.523-1.868 16.56-9.56 14.824-17.108 28.562-1.26 2.294-2.169 6.37-2.726 12.23L15.065 85c-.257-7.249.244-14.058 1.503-20.428z" transform="matrix(-1 0 0 1 158.13 85)"/>
            <path d="M.238 46.455c1.386-6.949 6.52-12.37 12.05-19.757 1.71-2.286 2.672-5.519 2.883-9.698 1.575 3.34 1.47 7.3-.317 11.877-4.578 11.734-7.83 13.752-7.83 20.062 0 6.5 3.658 17.784 10.976 33.854L8.235 90C1.812 66.44-.854 51.925.238 46.455z" transform="matrix(-1 0 0 1 158.13 85)"/>
            <path d="M12.684 49.19c2.014-8.15 10.256-13.967 10.256-21.666 0-5.454-11.288-10.956-10.256-19.956 0-2.164.694-4.687 2.08-7.568-.044 1.633-.066 4.156-.066 7.568C14.698 13.097 29 19.851 29 27.524 29 42.5 22.94 42.5 20.859 52.085c-1.006 4.63 1.708 13.624 8.141 26.98L14.765 85c-2.76-18.316-3.454-30.253-2.08-35.81z" transform="matrix(-1 0 0 1 158.13 85)"/>
        </g>
        </g>
        <g id="sw-right-front" mask="url(#mask-2)">
        <g id="Rectangle">
            <path d="M2.494 32c7.775 4.974 12.17 11.875 13.182 20.702C17.196 65.943-3.416 83.175.494 104.164c3.91 20.99 24.158 25.477 29.025 22.845 4.867-2.633-12.266-9.07-17.84-19.864-2.594-5.024-9.891-17.395-9.891-28.9 0-9.694 4.002-24.527 4.002-29.77 0-6.537-1.098-12.029-3.296-16.475z" transform="translate(128.13 4)"/>
            <path d="M20.478 0c-.983 5.58-1.212 9.467-.687 11.663.788 3.295 14.598 22.852 14.12 30.905-1.349 22.75-20.03 45.341-18.722 58.522 1.772 17.846 10.399 26.543 15.266 23.91 4.866-2.633 1.401-10.277-4.173-21.072-5.573-10.794 0-32.178 0-43.683 0-3.852.17-9.66-2.075-17.677-3.403-12.154-9.716-21.696-9.716-30.292 0-3.008 1.996-7.1 5.987-12.276z" transform="translate(128.13 4)"/>
            <path d="M24.208 79.844c1.6-8.091 13.286-19.757 15.905-26.551 2.192-5.685 3.008-10.116 2.45-13.293 1.817 8.542 1.817 14.493 0 17.852C36.372 69.29 34.675 75.33 33.922 82c-1.866 16.56 14.44 32.144 13.492 43-.421 4.82-4.706 4.82-12.855 0-8.16-23.734-11.612-38.786-10.352-45.156z" transform="translate(128.13 4)"/>
            <path d="M26.523 91.5c5.795-11.656 10.075-16.704 13.438-39.172C42.2 37.363 30.53 8.935 23.21 3c6.686 5.7 8.996 9.434 12.477 15.43 8.18 14.088 12.52 29.928 11.607 39.503-2.267 23.77-2.442 20.629-11.607 40.347-1.53 3.292-4.586 12.2-9.165 26.72H13.494c6.097-17.126 10.44-28.293 13.029-33.5z" transform="matrix(-1 0 0 1 189.04 4)"/>
        </g>
        </g>
        <g id="sw-left-back" mask="url(#mask-2)">
        <g id="Rectangle">
            <path d="M2.3 30c7.165 4.679 11.215 11.17 12.149 19.472 1.4 12.454-17.597 28.66-13.993 48.402 3.604 19.742 22.266 23.963 26.751 21.487 4.486-2.476-11.305-8.53-16.443-18.683-2.39-4.725-9.116-16.36-9.116-27.182 0-9.118 3.689-23.07 3.689-28 0-6.15-1.013-11.314-3.038-15.496z" transform="matrix(-1 0 0 1 55.13 4)"/>
            <path d="M19.545 0c-.91 5.247-1.122 8.904-.636 10.97.73 3.098 13.522 21.492 13.08 29.066-1.25 21.396-18.554 42.645-17.342 55.041 1.64 16.785 9.632 24.964 14.14 22.488 4.508-2.476 1.298-9.666-3.865-19.818-5.163-10.152 0-30.264 0-41.085 0-3.624.156-9.087-1.923-16.626C19.847 28.606 14 19.63 14 11.546 14 8.717 15.848 4.868 19.545 0z" transform="matrix(-1 0 0 1 55.13 4)"/>
            <path d="M22.236 75.32c1.498-7.58 12.44-18.506 14.891-24.87 2.051-5.324 2.816-9.474 2.293-12.45 1.701 8.001 1.701 13.575 0 16.721-5.794 10.712-7.383 16.37-8.088 22.617-1.747 15.512 13.519 30.107 12.63 40.276-.394 4.515-4.405 4.515-12.034 0-7.64-22.23-10.87-36.329-9.692-42.295z" transform="matrix(-1 0 0 1 55.13 4)"/>
            <path d="M25.29 85.697c5.468-10.892 9.505-15.609 12.678-36.604C40.081 35.11 29.072 8.546 22.168 3c6.306 5.327 8.485 8.816 11.769 14.418 7.716 13.164 11.811 27.966 10.95 36.913-2.139 22.21-2.304 19.276-10.95 37.7-1.444 3.078-4.326 11.4-8.647 24.969H13c5.751-16.003 9.848-26.438 12.29-31.303z" transform="translate(-2.87 4)"/>
        </g>
        </g>
        <g id="sw-left-front" mask="url(#mask-2)">
        <g id="Rectangle">
            <path d="M24.345 95.734C26.7 83.738 49.052 72.929 53.13 49.72 54.942 39.415 48.538 22.841 33.918 0c7.274 6.497 12.318 11.81 15.134 15.938C58.974 30.49 64.239 46.852 63.13 56.743 60.38 81.295 49.05 78.72 37.934 99.088c-1.856 3.401-3.195 9.445-4.016 18.132L22.13 126.02c-.379-10.747.36-20.842 2.214-30.285z" transform="translate(0 54.78)"/>
            <path d="M.353 69.22c2.056-10.375 9.672-18.469 17.874-29.5 2.538-3.413 3.964-8.24 4.277-14.48 2.337 4.987 2.18 10.898-.47 17.734-6.792 17.52-11.616 20.533-11.616 29.955 0 9.705 5.428 26.555 16.283 50.549l-14.486 10.761C2.688 99.061-1.266 77.39.353 69.22z" transform="translate(0 54.78)"/>
            <path d="M19.13 72.929c2.905-12.083 14.788-20.709 14.788-32.122 0-8.087-16.276-16.243-14.787-29.587 0-3.208 1-6.948 3-11.22-.064 2.421-.096 6.161-.096 11.22 0 8.197 20.62 18.21 20.62 29.587 0 22.203-8.737 22.203-11.738 36.413-1.45 6.865 2.463 20.198 11.739 40L22.13 126.02c-3.98-27.155-4.98-44.852-3-53.09z" transform="translate(0 54.78)"/>
        </g>
        </g>
    </g>
    </g>
</svg>