<?xml version="1.0" encoding="UTF-8"?>
<svg width="76px" height="30px" viewBox="0 0 76 30" version="1.1" xmlns="http://www.w3.org/2000/svg" xmlns:xlink="http://www.w3.org/1999/xlink">
    <!-- Generator: Sketch 54.1 (76490) - https://sketchapp.com -->
    <title>kelp-logo</title>
    <desc>Created with Sketch.</desc>
    <g id="kelp-logo" stroke="none" stroke-width="1" fill="none" fill-rule="evenodd">
        <path d="M33.6382857,15.588576 L40.9977143,7.43317059 L44.1914286,7.43317059 L37.9428571,14.2331706 L44.8394286,24.088576 L41.7151429,24.088576 L36.184,16.1399273 L33.6382857,18.9196571 L33.6382857,24.088576 L31,24.088576 L31,7.43317059 L33.6382857,7.43317059 L33.6382857,15.588576 Z M53.6269075,20.4588463 L56.0569075,20.4588463 C55.4783361,22.5034409 53.6269075,24.3872246 50.4563361,24.3872246 C46.429479,24.3872246 44.2540504,21.4696571 44.2540504,17.8858733 C44.2540504,14.0493868 46.8460504,11.4993868 50.3869075,11.4993868 C54.2286218,11.4993868 56.473479,14.6237111 56.2189075,18.6439814 L46.7303361,18.6439814 C46.9617647,20.9183057 48.4197647,22.34263 50.3637647,22.34263 C52.099479,22.34263 53.1177647,21.6304679 53.6269075,20.4588463 Z M46.7766218,16.7601976 L53.719479,16.7601976 C53.6500504,14.9223598 52.3540504,13.4520895 50.3637647,13.4520895 C48.4891932,13.4520895 47.1006218,14.4169544 46.7766218,16.7601976 Z M60.1695293,24.088576 L57.7626722,24.088576 L57.7626722,7.43317059 L60.1695293,7.43317059 L60.1695293,24.088576 Z M64.9995797,11.7291165 L64.9995797,13.5439814 C65.763294,12.2804679 67.059294,11.4993868 68.8875797,11.4993868 C71.7804369,11.4993868 74.2567226,13.911549 74.2567226,17.9318192 C74.2567226,21.9750625 71.7804369,24.3872246 68.8875797,24.3872246 C67.059294,24.3872246 65.763294,23.6061436 64.9995797,22.34263 L64.9995797,28.1088463 L62.5927226,28.1088463 L62.5927226,11.7291165 L64.9995797,11.7291165 Z M68.3321512,22.388576 C70.3224369,22.388576 71.6878654,20.711549 71.6878654,17.9318192 C71.6878654,15.1520895 70.3224369,13.4980355 68.3321512,13.4980355 C66.4807226,13.4980355 64.9070083,14.8764138 64.9070083,17.9318192 C64.9070083,20.9872246 66.4807226,22.388576 68.3321512,22.388576 Z" id="Kelp" fill="#FFFFFF" fill-rule="nonzero"></path>
        <path d="M0,0 L-1.08613529e-15,0 C3.26546375,-5.99855959e-16 5.91264515,2.6471814 5.91264515,5.91264515 L5.91264515,29.2477257 L5.91264515,29.2477257 C2.6471814,29.2477257 -1.70265249e-15,26.6005443 -3.55271368e-15,23.3350806 L0,0 Z" id="shape3" fill="#FFFFFF"></path>
        <path d="M10.9630295,0.0270201526 L10.9630295,0.0270201526 C14.2284933,0.0270201526 16.8756747,2.67420156 16.8756747,5.9396653 L16.8756747,14.6854529 L16.8756747,14.6854529 C13.610211,14.6854529 10.9630295,12.0382715 10.9630295,8.77280777 L10.9630295,0.0270201526 Z" id="shape2" fill="#FFFFFF" transform="translate(13.919352, 7.356237) rotate(-315.000000) translate(-13.919352, -7.356237) "></path>
        <path d="M10.9630295,14.5729688 L10.9630295,14.5729688 C14.2284933,14.5729688 16.8756747,17.2201502 16.8756747,20.485614 L16.8756747,29.2314016 L16.8756747,29.2314016 C13.610211,29.2314016 10.9630295,26.5842202 10.9630295,23.3187565 L10.9630295,14.5729688 Z" id="shape1" fill="#FFFFFF" transform="translate(13.919352, 21.902185) scale(-1, 1) rotate(-315.000000) translate(-13.919352, -21.902185) "></path>
    </g>
</svg>