<?xml version="1.0" encoding="UTF-8"?>
<svg width="13px" height="13px" viewBox="0 0 13 13" version="1.1" xmlns="http://www.w3.org/2000/svg" xmlns:xlink="http://www.w3.org/1999/xlink">
    <!-- Generator: Sketch 54.1 (76490) - https://sketchapp.com -->
    <title>ico-import</title>
    <desc>Created with Sketch.</desc>
    <g id="ico" stroke="none" stroke-width="1" fill="none" fill-rule="evenodd">
        <path d="M0,12.1766299 C0,12.6313646 0.361262606,13 0.813208256,13 L12.1867917,13 C12.6359143,13 13,12.631616 13,12.1766299 L13,6.39479876 C13,5.94006396 12.6393598,5.57142857 12.1875,5.57142857 C11.7387687,5.57142857 11.375,5.93285445 11.375,6.39924323 L11.375,11.3492063 L1.625,11.3492063 L1.625,6.39924323 C1.625,5.94205383 1.26435985,5.57142857 0.8125,5.57142857 C0.363768681,5.57142857 0,5.93981258 0,6.39479876 L0,12.1766299 Z M6.4998706,0 C6.06273825,0 5.70837239,0.369640101 5.70837239,0.846628655 L5.70837239,5.90909091 L4.12455012,5.90909091 C3.68787383,5.90909091 3.58230791,6.17404888 3.89260592,6.50499069 L6.4998706,9.28571429 L9.10713527,6.50499069 C9.41571233,6.17588433 9.3154986,5.90909091 8.87519108,5.90909091 L7.29136881,5.90909091 L7.29136881,0.846628655 C7.29136881,0.379048564 6.94005061,0 6.4998706,0 Z" id="Shape" fill="#CECECE" fill-rule="nonzero"></path>
    </g>
</svg>