<?xml version="1.0" encoding="UTF-8"?>
<svg width="19px" height="19px" viewBox="0 0 19 19" version="1.1" xmlns="http://www.w3.org/2000/svg" xmlns:xlink="http://www.w3.org/1999/xlink">
    <!-- Generator: Sketch 54.1 (76490) - https://sketchapp.com -->
    <title>ico-day</title>
    <desc>Created with Sketch.</desc>
    <g id="ico" stroke="none" stroke-width="1" fill="none" fill-rule="evenodd">
        <g id="Group" fill="#5F6274" fill-rule="nonzero">
            <path d="M9.5,14.25 C12.1233526,14.25 14.25,12.1233526 14.25,9.5 C14.25,6.87664744 12.1233526,4.75 9.5,4.75 C6.87664744,4.75 4.75,6.87664744 4.75,9.5 C4.75,12.1233526 6.87664744,14.25 9.5,14.25 Z M9.5,12.6666667 C7.75109829,12.6666667 6.33333333,11.2489017 6.33333333,9.5 C6.33333333,7.75109829 7.75109829,6.33333333 9.5,6.33333333 C11.2489017,6.33333333 12.6666667,7.75109829 12.6666667,9.5 C12.6666667,11.2489017 11.2489017,12.6666667 9.5,12.6666667 Z" id="Oval"></path>
            <path d="M8.70833333,0.791666667 L8.70833333,2.375 C8.70833333,2.81222543 9.06277457,3.16666667 9.5,3.16666667 C9.93722543,3.16666667 10.2916667,2.81222543 10.2916667,2.375 L10.2916667,0.791666667 C10.2916667,0.35444124 9.93722543,0 9.5,0 C9.06277457,0 8.70833333,0.35444124 8.70833333,0.791666667 Z" id="Path"></path>
            <path d="M8.70833333,16.625 L8.70833333,18.2083333 C8.70833333,18.6455588 9.06277457,19 9.5,19 C9.93722543,19 10.2916667,18.6455588 10.2916667,18.2083333 L10.2916667,16.625 C10.2916667,16.1877746 9.93722543,15.8333333 9.5,15.8333333 C9.06277457,15.8333333 8.70833333,16.1877746 8.70833333,16.625 Z" id="Path"></path>
            <path d="M2.78104046,3.9006262 L3.90520713,5.02479287 C4.2143722,5.33395793 4.7156278,5.33395793 5.02479287,5.02479287 C5.33395793,4.7156278 5.33395793,4.2143722 5.02479287,3.90520713 L3.9006262,2.78104046 C3.59146114,2.4718754 3.09020553,2.4718754 2.78104046,2.78104046 C2.4718754,3.09020553 2.4718754,3.59146114 2.78104046,3.9006262 Z" id="Path"></path>
            <path d="M13.9752071,15.0947929 L15.0993738,16.2189595 C15.4085389,16.5281246 15.9097945,16.5281246 16.2189595,16.2189595 C16.5281246,15.9097945 16.5281246,15.4085389 16.2189595,15.0993738 L15.0947929,13.9752071 C14.7856278,13.6660421 14.2843722,13.6660421 13.9752071,13.9752071 C13.6660421,14.2843722 13.6660421,14.7856278 13.9752071,15.0947929 Z" id="Path"></path>
            <path d="M0.791666667,10.2916667 L2.375,10.2916667 C2.81222543,10.2916667 3.16666667,9.93722543 3.16666667,9.5 C3.16666667,9.06277457 2.81222543,8.70833333 2.375,8.70833333 L0.791666667,8.70833333 C0.35444124,8.70833333 0,9.06277457 0,9.5 C0,9.93722543 0.35444124,10.2916667 0.791666667,10.2916667 Z" id="Path"></path>
            <path d="M16.625,10.2916667 L18.2083333,10.2916667 C18.6455588,10.2916667 19,9.93722543 19,9.5 C19,9.06277457 18.6455588,8.70833333 18.2083333,8.70833333 L16.625,8.70833333 C16.1877746,8.70833333 15.8333333,9.06277457 15.8333333,9.5 C15.8333333,9.93722543 16.1877746,10.2916667 16.625,10.2916667 Z" id="Path"></path>
            <path d="M3.9006262,16.2189595 L5.02479287,15.0947929 C5.33395793,14.7856278 5.33395793,14.2843722 5.02479287,13.9752071 C4.7156278,13.6660421 4.2143722,13.6660421 3.90520713,13.9752071 L2.78104046,15.0993738 C2.4718754,15.4085389 2.4718754,15.9097945 2.78104046,16.2189595 C3.09020553,16.5281246 3.59146114,16.5281246 3.9006262,16.2189595 Z" id="Path"></path>
            <path d="M15.0947929,5.02479287 L16.2189595,3.9006262 C16.5281246,3.59146114 16.5281246,3.09020553 16.2189595,2.78104046 C15.9097945,2.4718754 15.4085389,2.4718754 15.0993738,2.78104046 L13.9752071,3.90520713 C13.6660421,4.2143722 13.6660421,4.7156278 13.9752071,5.02479287 C14.2843722,5.33395793 14.7856278,5.33395793 15.0947929,5.02479287 Z" id="Path"></path>
        </g>
    </g>
</svg>