<?xml version="1.0" encoding="UTF-8"?>
<svg width="50px" height="50px" viewBox="0 0 50 50" version="1.1" xmlns="http://www.w3.org/2000/svg" xmlns:xlink="http://www.w3.org/1999/xlink">
    <!-- Generator: Sketch 54.1 (76490) - https://sketchapp.com -->
    <title>ico-alert</title>
    <desc>Created with Sketch.</desc>
    <g id="ico" stroke="none" stroke-width="1" fill="none" fill-rule="evenodd">
        <path d="M24.9997802,3 C23.6634777,3 22.4172863,3.68622922 21.7369027,4.82611869 L0.510843829,40.4699048 C-0.169678552,41.6130414 -0.170883734,43.0318184 0.510843829,44.1738524 C1.13708304,45.2220583 2.27865694,46.0032788 3.61751947,45.9999711 L46.3820409,45.9999711 C47.7207648,46.0054839 48.8625497,45.2219481 49.4887167,44.1738524 C50.1710274,43.0317633 50.1698278,41.6130965 49.4887167,40.4699048 L28.2626576,4.82611869 C27.5822685,3.68623473 26.3360826,3 24.9997802,3 L24.9997802,3 Z M24.9997802,5.20512446 C25.5135598,5.20512446 26.0846106,5.53465275 26.3361715,5.94590846 L47.5795863,41.5897222 C47.8279982,42.0066561 47.8285203,42.6201768 47.5795863,43.0368351 C47.2745087,43.5474868 46.9014076,43.7960594 46.3820409,43.7948466 L3.61751947,43.7948466 C3.09830264,43.7948466 2.72496859,43.5473214 2.41997425,43.0368351 C2.17120136,42.6200666 2.17171787,42.0067112 2.41997425,41.5897222 L23.6460331,5.94590846 C23.8943284,5.52991724 24.4818352,5.20512446 24.9997802,5.20512446 Z M24.9997802,15.6794657 C24.3863037,15.6794657 23.8890134,16.1730828 23.8890134,16.7820279 L23.8890134,32.2179432 C23.8890134,32.8268883 24.3863037,33.3205054 24.9997802,33.3205054 C25.6132567,33.3205054 26.110547,32.8268883 26.110547,32.2179432 L26.110547,16.7820279 C26.110547,16.1730828 25.6132567,15.6794657 24.9997802,15.6794657 Z M24.9997802,35.5256299 C24.0795876,35.5256299 23.33363,36.2661107 23.33363,37.1794732 C23.33363,38.0928909 24.0795876,38.8333166 24.9997802,38.8333166 C25.9199671,38.8333166 26.6659303,38.0928909 26.6659303,37.1794732 C26.6659303,36.2661107 25.9199671,35.5256299 24.9997802,35.5256299 Z" id="Shape" fill="#FF8900" fill-rule="nonzero"></path>
    </g>
</svg>