<?xml version="1.0" encoding="UTF-8"?>
<svg width="20px" height="4px" viewBox="0 0 20 4" version="1.1" xmlns="http://www.w3.org/2000/svg" xmlns:xlink="http://www.w3.org/1999/xlink">
    <!-- Generator: Sketch 54.1 (76490) - https://sketchapp.com -->
    <title>wave-ico</title>
    <desc>Created with Sketch.</desc>
    <g id="ico" stroke="none" stroke-width="1" fill="none" fill-rule="evenodd">
        <path d="M1.13686838e-13,3.94882308 C0.826505571,4.09741512 1.5842034,3.92078136 2.30968213,3.44043139 C2.75369343,3.14644508 3.12867474,2.74919619 3.40618181,2.27881808 C4.12277156,1.06418908 5.63313958,0.694944817 6.77968319,1.45408795 C7.09492536,1.66281435 7.36115715,1.94485583 7.5581835,2.27881808 C8.56748359,3.98959493 10.694802,4.50966692 12.3096821,3.44043139 C12.7536934,3.14644508 13.1286747,2.74919619 13.4061818,2.27881808 C14.1227716,1.06418908 15.6331396,0.694944817 16.7796832,1.45408795 C17.0949254,1.66281435 17.3611571,1.94485583 17.5581835,2.27881808 C18.091739,3.18320159 19.0256572,3.78145212 20,3.94882308 L20,2.90309803 C19.3071968,2.78408948 18.7853713,2.36007721 18.4061818,1.71734612 C18.1286747,1.24696802 17.7536934,0.849719127 17.3096821,0.555732812 C15.694802,-0.513502717 13.5674836,0.00656927779 12.5581835,1.71734612 C12.3611571,2.05130838 12.0949254,2.33334985 11.7796832,2.54207626 C10.6331396,3.30121939 9.12277156,2.93197513 8.40618181,1.71734612 C8.12867474,1.24696802 7.75369343,0.849719127 7.30968213,0.555732812 C5.69480199,-0.513502717 3.56748359,0.00656927779 2.5581835,1.71734612 C2.36115715,2.05130838 2.09492536,2.33334985 1.77968319,2.54207626 C1.26392926,2.8835644 0.587291323,3.00868331 1.13686838e-13,2.90309803 L1.13686838e-13,3.94882308 Z" id="ico" fill="#00AA46" fill-rule="nonzero"></path>
    </g>
</svg>