<?xml version="1.0" encoding="UTF-8"?>
<svg width="19px" height="19px" viewBox="0 0 19 19" version="1.1" xmlns="http://www.w3.org/2000/svg" xmlns:xlink="http://www.w3.org/1999/xlink">
    <!-- Generator: Sketch 54.1 (76490) - https://sketchapp.com -->
    <title>ico-help</title>
    <desc>Created with Sketch.</desc>
    <g id="ico" stroke="none" stroke-width="1" fill="none" fill-rule="evenodd">
        <path d="M9.4547619,18.9095238 C14.6764827,18.9095238 18.9095238,14.6764827 18.9095238,9.4547619 C18.9095238,4.23304109 14.6764827,0 9.4547619,0 C4.23304109,0 0,4.23304109 0,9.4547619 C0,14.6764827 4.23304109,18.9095238 9.4547619,18.9095238 Z M9.4547619,17.1904762 C5.18244488,17.1904762 1.71904762,13.7270789 1.71904762,9.4547619 C1.71904762,5.18244488 5.18244488,1.71904762 9.4547619,1.71904762 C13.7270789,1.71904762 17.1904762,5.18244488 17.1904762,9.4547619 C17.1904762,13.7270789 13.7270789,17.1904762 9.4547619,17.1904762 Z" id="Oval" fill="#5F6274" fill-rule="nonzero"></path>
        <path d="M9.4547619,13.752381 C11.8282714,13.752381 13.752381,11.8282714 13.752381,9.4547619 C13.752381,7.08125244 11.8282714,5.15714286 9.4547619,5.15714286 C7.08125244,5.15714286 5.15714286,7.08125244 5.15714286,9.4547619 C5.15714286,11.8282714 7.08125244,13.752381 9.4547619,13.752381 Z M9.4547619,12.0333333 C8.03065623,12.0333333 6.87619048,10.8788676 6.87619048,9.4547619 C6.87619048,8.03065623 8.03065623,6.87619048 9.4547619,6.87619048 C10.8788676,6.87619048 12.0333333,8.03065623 12.0333333,9.4547619 C12.0333333,10.8788676 10.8788676,12.0333333 9.4547619,12.0333333 Z" id="Oval" fill="#5F6274" fill-rule="nonzero"></path>
        <path d="M2.77015346,3.98570369 L6.41453441,7.63008464 C6.75019934,7.96574957 7.29441971,7.96574957 7.63008464,7.63008464 C7.96574957,7.29441971 7.96574957,6.75019934 7.63008464,6.41453441 L3.98570369,2.77015346 C3.65003876,2.43448853 3.10581838,2.43448853 2.77015346,2.77015346 C2.43448853,3.10581838 2.43448853,3.65003876 2.77015346,3.98570369 Z" id="Path" fill="#5F6274" fill-rule="nonzero"></path>
        <path d="M11.2794392,12.4949894 L14.9238201,16.1393704 C15.2594851,16.4750353 15.8037054,16.4750353 16.1393704,16.1393704 C16.4750353,15.8037054 16.4750353,15.2594851 16.1393704,14.9238201 L12.4949894,11.2794392 C12.1593245,10.9437742 11.6151041,10.9437742 11.2794392,11.2794392 C10.9437742,11.6151041 10.9437742,12.1593245 11.2794392,12.4949894 Z" id="Path" fill="#5F6274" fill-rule="nonzero"></path>
        <path d="M12.4949894,7.63008464 L16.1393704,3.98570369 C16.4750353,3.65003876 16.4750353,3.10581838 16.1393704,2.77015346 C15.8037054,2.43448853 15.2594851,2.43448853 14.9238201,2.77015346 L11.2794392,6.41453441 C10.9437742,6.75019934 10.9437742,7.29441971 11.2794392,7.63008464 C11.6151041,7.96574957 12.1593245,7.96574957 12.4949894,7.63008464 Z" id="Path" fill="#5F6274" fill-rule="nonzero"></path>
        <path d="M12.4949894,7.63008464 L15.5291084,4.59596559 C15.8647734,4.26030066 15.8647734,3.71608029 15.5291084,3.38041536 C15.1934435,3.04475043 14.6492231,3.04475043 14.3135582,3.38041536 L11.2794392,6.41453441 C10.9437742,6.75019934 10.9437742,7.29441971 11.2794392,7.63008464 C11.6151041,7.96574957 12.1593245,7.96574957 12.4949894,7.63008464 Z" id="Path" fill="#5F6274" fill-rule="nonzero"></path>
        <path d="M3.98570369,16.1393704 L7.63008464,12.4949894 C7.96574957,12.1593245 7.96574957,11.6151041 7.63008464,11.2794392 C7.29441971,10.9437742 6.75019934,10.9437742 6.41453441,11.2794392 L2.77015346,14.9238201 C2.43448853,15.2594851 2.43448853,15.8037054 2.77015346,16.1393704 C3.10581838,16.4750353 3.65003876,16.4750353 3.98570369,16.1393704 Z" id="Path" fill="#5F6274" fill-rule="nonzero"></path>
    </g>
</svg>