<?xml version="1.0" encoding="UTF-8"?>
<svg width="11px" height="11px" viewBox="0 0 11 11" version="1.1" xmlns="http://www.w3.org/2000/svg" xmlns:xlink="http://www.w3.org/1999/xlink">
    <!-- Generator: Sketch 54.1 (76490) - https://sketchapp.com -->
    <title>ico-error-small</title>
    <desc>Created with Sketch.</desc>
    <g id="ico" stroke="none" stroke-width="1" fill="none" fill-rule="evenodd">
        <path d="M5.53553391,4.82842712 L8.01040764,2.35355339 C8.20566979,2.15829124 8.52225228,2.15829124 8.71751442,2.35355339 C8.91277657,2.54881554 8.91277657,2.86539803 8.71751442,3.06066017 L6.24264069,5.53553391 L8.71751442,8.01040764 C8.91277657,8.20566979 8.91277657,8.52225228 8.71751442,8.71751442 C8.52225228,8.91277657 8.20566979,8.91277657 8.01040764,8.71751442 L5.53553391,6.24264069 L3.06066017,8.71751442 C2.86539803,8.91277657 2.54881554,8.91277657 2.35355339,8.71751442 C2.15829124,8.52225228 2.15829124,8.20566979 2.35355339,8.01040764 L4.82842712,5.53553391 L2.35355339,3.06066017 C2.15829124,2.86539803 2.15829124,2.54881554 2.35355339,2.35355339 C2.54881554,2.15829124 2.86539803,2.15829124 3.06066017,2.35355339 L5.53553391,4.82842712 Z" id="Path" fill="#FFFFFF"></path>
    </g>
</svg>