<?xml version="1.0" encoding="UTF-8"?>
<svg width="11px" height="11px" viewBox="0 0 11 11" version="1.1" xmlns="http://www.w3.org/2000/svg" xmlns:xlink="http://www.w3.org/1999/xlink">
    <!-- Generator: Sketch 54.1 (76490) - https://sketchapp.com -->
    <title>ico-warning-small</title>
    <desc>Created with Sketch.</desc>
    <g id="ico" stroke="none" stroke-width="1" fill="none" fill-rule="evenodd">
        <path d="M0.678710412,7.88731959 L4.37945332,1.78925192 C4.61699315,1.40272047 5.04176727,1.16666667 5.49978309,1.16666667 C5.95779891,1.16666667 6.38257303,1.40272047 6.62136527,1.79130272 L10.3244037,7.89327364 C10.5572216,8.29123897 10.5586117,8.78125738 10.3280553,9.18050335 C10.0974989,9.57974933 9.66962536,9.8282566 9.19927358,9.83333333 L1.7954922,9.83330729 C1.32994082,9.8282566 0.902067282,9.57974933 0.671510894,9.18050335 C0.440954506,8.78125738 0.442344563,8.29123897 0.678710412,7.88731959 Z M5.49978309,2.02890385 C5.34744589,2.02890385 5.20614073,2.10724379 5.12686155,2.23558549 L1.43164974,8.3244443 C1.35404378,8.45709942 1.35358043,8.62043888 1.43043256,8.75352088 C1.50728469,8.88660287 1.6499092,8.96943863 1.8002926,8.97109615 L9.19447318,8.97112219 C9.34965698,8.96943863 9.49228149,8.88660287 9.56913362,8.75352088 C9.64598575,8.62043888 9.64552239,8.45709942 9.57146441,8.33039835 L5.87322634,2.23643227 C5.7940464,2.10758845 5.65245503,2.02890385 5.49978309,2.02890385 Z M5.46784678,3.78755484 L5.53215322,3.78755484 C5.79053786,3.78755484 6,3.99701698 6,4.25540162 L6,5.94078855 C6,6.19917319 5.79053786,6.40863532 5.53215322,6.40863532 L5.46784678,6.40863532 C5.20946214,6.40863532 5,6.19917319 5,5.94078855 L5,4.25540162 C5,3.99701698 5.20946214,3.78755484 5.46784678,3.78755484 Z M5.46784678,6.98040673 L5.53215322,6.98040673 C5.79053786,6.98040673 6,7.18986886 6,7.4482535 L6,7.52664766 C6,7.7850323 5.79053786,7.99449444 5.53215322,7.99449444 L5.46784678,7.99449444 C5.20946214,7.99449444 5,7.7850323 5,7.52664766 L5,7.4482535 C5,7.18986886 5.20946214,6.98040673 5.46784678,6.98040673 Z" id="Combined-Shape" fill="#FFFFFF" fill-rule="nonzero"></path>
    </g>
</svg>