<?xml version="1.0" encoding="UTF-8"?>
<svg width="50px" height="50px" viewBox="0 0 50 50" version="1.1" xmlns="http://www.w3.org/2000/svg" xmlns:xlink="http://www.w3.org/1999/xlink">
    <!-- Generator: Sketch 54.1 (76490) - https://sketchapp.com -->
    <title>ico-error</title>
    <desc>Created with Sketch.</desc>
    <g id="ico" stroke="none" stroke-width="1" fill="none" fill-rule="evenodd">
        <path d="M23.7992648,25.5670317 L15.9661165,17.7338835 C15.4779612,17.2457281 15.4779612,16.4542719 15.9661165,15.9661165 C16.4542719,15.4779612 17.2457281,15.4779612 17.7338835,15.9661165 L25.5670317,23.7992648 L33.40018,15.9661165 C33.8883354,15.4779612 34.6797916,15.4779612 35.167947,15.9661165 C35.6561023,16.4542719 35.6561023,17.2457281 35.167947,17.7338835 L27.3347987,25.5670317 L35.167947,33.40018 C35.6561023,33.8883354 35.6561023,34.6797916 35.167947,35.167947 C34.6797916,35.6561023 33.8883354,35.6561023 33.40018,35.167947 L25.5670317,27.3347987 L17.7338835,35.167947 C17.2457281,35.6561023 16.4542719,35.6561023 15.9661165,35.167947 C15.4779612,34.6797916 15.4779612,33.8883354 15.9661165,33.40018 L23.7992648,25.5670317 Z M25.2351304,48.9702608 C12.1265799,48.9702608 1.5,38.343681 1.5,25.2351304 C1.5,12.1265799 12.1265799,1.5 25.2351304,1.5 C38.343681,1.5 48.9702608,12.1265799 48.9702608,25.2351304 C48.9702608,38.343681 38.343681,48.9702608 25.2351304,48.9702608 Z M25.2351304,46.7702608 C37.1286545,46.7702608 46.7702608,37.1286545 46.7702608,25.2351304 C46.7702608,13.3416063 37.1286545,3.7 25.2351304,3.7 C13.3416063,3.7 3.7,13.3416063 3.7,25.2351304 C3.7,37.1286545 13.3416063,46.7702608 25.2351304,46.7702608 Z" id="Combined-Shape" fill="#AF2E2F" fill-rule="nonzero"></path>
    </g>
</svg>