<?xml version="1.0" encoding="UTF-8"?>
<svg width="144px" height="144px" viewBox="0 0 144 144" version="1.1" xmlns="http://www.w3.org/2000/svg" xmlns:xlink="http://www.w3.org/1999/xlink">
    <!-- Generator: Sketch 54.1 (76490) - https://sketchapp.com -->
    <title>ico-empty</title>
    <desc>Created with Sketch.</desc>
    <defs>
        <linearGradient x1="50%" y1="0%" x2="50%" y2="100%" id="linearGradient-1">
            <stop stop-color="#FFFFFF" stop-opacity="0.42149257" offset="0%"></stop>
            <stop stop-color="#FFFFFF" stop-opacity="0" offset="100%"></stop>
        </linearGradient>
        <linearGradient x1="50%" y1="0%" x2="50%" y2="100%" id="linearGradient-2">
            <stop stop-color="#FFFFFF" stop-opacity="0.178048514" offset="0%"></stop>
            <stop stop-color="#FFFFFF" stop-opacity="0" offset="100%"></stop>
        </linearGradient>
        <linearGradient x1="50%" y1="0%" x2="50%" y2="100%" id="linearGradient-3">
            <stop stop-color="#FFFFFF" stop-opacity="0.50895979" offset="0%"></stop>
            <stop stop-color="#FFFFFF" stop-opacity="0" offset="100%"></stop>
        </linearGradient>
    </defs>
    <g id="ico-empty" stroke="none" stroke-width="1" fill="none" fill-rule="evenodd">
        <g id="Group-Copy" transform="translate(-16.000000, -16.000000)">
            <rect id="Rectangle" fill="#272747" x="16" y="16" width="144" height="144"></rect>
            <path d="M16,160 L160,160 C160,145.974526 160,137.141193 160,133.5 C160,118.864454 127.764502,107 88,107 C48.235498,107 16,118.864454 16,133.5 C16,143.257031 16,152.090364 16,160 Z" id="ground" fill="#212139" opacity="0.722586496"></path>
            <polygon id="light-1" fill="url(#linearGradient-1)" style="mix-blend-mode: overlay;" opacity="0.565592448" points="48.6309274 6.82121026e-13 99.6309274 6.82121026e-13 74.1309274 127.708258 23.1309274 127.708258"></polygon>
            <polygon id="light-2" fill="url(#linearGradient-2)" style="mix-blend-mode: overlay;" opacity="0.565592448" points="50.8110729 2.14587091 80.5610729 2.14587091 57.4507819 129.854129 27.7007819 129.854129"></polygon>
            <polygon id="light-3" fill="url(#linearGradient-3)" style="mix-blend-mode: overlay;" opacity="0.565592448" points="114.657538 3.14587091 136.184149 3.14587091 114.657538 130.854129 93.1309274 130.854129"></polygon>
            <g id="sw-right-back" transform="translate(136.630927, 130.000000) scale(-1, 1) translate(-136.630927, -130.000000) translate(115.130927, 85.000000)" fill="#1F1532">
                <path d="M16.568477,64.5723864 C18.1679856,56.4813402 33.3423837,49.1904138 36.1119617,33.5363749 C37.3417572,26.5854002 32.9937268,15.4066086 23.0678704,0 C28.0062682,4.38211869 31.431106,7.96561252 33.3423837,10.7504815 C40.0786108,20.5656485 43.6532737,31.6018954 42.90117,38.2730114 C41.0341377,54.8334787 33.3423837,53.0969509 25.7944755,66.8349141 C24.5340908,69.1289426 23.6252225,73.2057209 23.0678704,79.0652489 L15.0654162,85 C14.8082599,77.7511845 15.3092802,70.9419799 16.568477,64.5723864 Z" id="Rectangle"></path>
                <path d="M0.237788894,46.4551382 C1.6241602,39.5063573 6.75790375,34.0857885 12.2876236,26.6982575 C13.998764,24.412228 14.9597983,21.1794755 15.1707267,17 C16.7462469,20.3401227 16.6407827,24.2992506 14.8543342,28.8773838 C10.2755267,40.6114973 7.02325255,42.6287817 7.02325255,48.9386506 C7.02325255,55.4386718 10.6821684,66.7234105 18,82.7928668 L8.23461317,90 C1.81199032,66.4404489 -0.853617773,51.925495 0.237788894,46.4551382 Z" id="Rectangle"></path>
                <path d="M12.6842492,49.1904138 C14.6981054,41.0403958 22.9399505,35.2226678 22.9399505,27.5244903 C22.9399505,22.0698934 11.6517055,16.568413 12.6842492,7.56811659 C12.6842492,5.40393918 13.3778102,2.88123365 14.7649322,0 C14.720381,1.63301693 14.6981054,4.15572246 14.6981054,7.56811659 C14.6981054,13.0966004 29,19.8511736 29,27.5244903 C29,42.5 22.9399505,42.5 20.8586861,52.085199 C19.8533152,56.7154034 22.5670865,65.7087533 29,79.0652489 L14.7649322,85 C12.0046677,66.6840104 11.3111067,54.7474817 12.6842492,49.1904138 Z" id="Rectangle"></path>
            </g>
            <g id="sw-right-front" transform="translate(128.130927, 4.000000)" fill="#1A1323">
                <path d="M2.49444279,32 C10.2694419,36.9744308 14.6634202,43.8752465 15.6763777,52.7024471 C17.1958138,65.9432479 -3.41564226,83.1747104 0.494442793,104.163975 C4.40452785,125.153239 24.6521283,129.641233 29.5188683,127.008681 C34.3856084,124.376128 17.2525247,117.93871 11.6788956,107.144548 C9.08503352,102.121149 1.78789354,89.7504791 1.78789354,78.2452363 C1.78789354,68.5511409 5.79037672,53.7175539 5.79037672,48.4750412 C5.79037672,41.9376575 4.69173208,36.4459771 2.49444279,32 Z" id="Rectangle"></path>
                <path d="M20.477658,0 C19.4950932,5.57906461 19.2663542,9.46684769 19.791441,11.6633492 C20.579071,14.9581015 34.389389,34.5145847 33.9116847,42.5680761 C32.562273,65.3174533 13.8809614,87.9092134 15.1893489,101.08962 C16.9609177,118.936012 25.5879858,127.632553 30.4547258,125 C35.3214659,122.367447 31.8559655,114.722508 26.2823363,103.928346 C20.7087072,93.1341845 26.2823363,71.7504791 26.2823363,60.2452363 C26.2823363,56.3925925 26.4513408,50.5841001 24.2069567,42.5680761 C20.803979,30.4140286 14.4913386,20.8717534 14.4913386,12.276372 C14.4913386,9.26829136 16.4867784,5.17616736 20.477658,0 Z" id="Rectangle"></path>
                <path d="M24.2075663,79.8440745 C25.8070749,71.7530283 37.4944428,60.0869765 40.1133679,53.2927525 C42.3046217,47.6080275 43.1209368,43.17711 42.5623131,40 C44.3800499,48.5422722 44.3800499,54.4930302 42.5623131,57.8522741 C36.3737477,69.2889688 34.6758978,75.3288841 33.9237941,82 C32.0567618,98.5604673 48.3635154,114.143814 47.4150089,125 C46.9938239,129.820698 42.7087739,129.820698 34.559859,125 C26.3991338,101.265643 22.9483696,86.213668 24.2075663,79.8440745 Z" id="Rectangle"></path>
                <path d="M26.5225862,91.5 C32.3183476,79.8440745 36.5978837,74.7958853 39.9609427,52.3277354 C42.2009274,37.3626958 30.530754,8.93521132 23.2117086,3 C29.8970361,8.70036802 32.2066476,12.4344438 35.6879034,18.4301028 C43.8676077,32.5177543 48.2082698,48.3580146 47.295001,57.9330281 C45.0278904,81.7021694 44.8532206,78.5616671 35.6879034,98.2796848 C34.1574364,101.572291 31.1023306,110.479062 26.5225862,125 L13.4944428,125 C19.5908119,107.873556 23.9335264,96.7068894 26.5225862,91.5 Z" id="Rectangle" transform="translate(30.454726, 64.000000) scale(-1, 1) translate(-30.454726, -64.000000) "></path>
            </g>
            <g id="sw-left-back" transform="translate(32.630927, 64.500000) scale(-1, 1) translate(-32.630927, -64.500000) translate(10.130927, 4.000000)" fill="#1F1532">
                <path d="M2.29912417,30 C9.46532919,34.6787275 13.5152524,41.1693266 14.4488937,49.4717973 C15.8493558,61.9255033 -3.14819233,78.1326474 0.455727179,97.874212 C4.05964669,117.615777 22.7218296,121.836984 27.2074965,119.360922 C31.6931635,116.884861 15.9016261,110.830113 10.7644205,100.677607 C8.37366173,95.9528211 1.64789879,84.3175219 1.64789879,73.4962042 C1.64789879,64.378371 5.33698152,50.4265614 5.33698152,45.4956881 C5.33698152,39.3469169 4.3243624,34.1816875 2.29912417,30 Z" id="Rectangle"></path>
                <path d="M19.5450403,0 C18.6349049,5.24723176 18.4230273,8.9037764 18.9094075,10.9696339 C19.6389777,14.0684202 32.4312738,32.4617185 31.9887833,40.0362026 C30.7388429,61.4324872 13.4346165,82.6805295 14.6465567,95.0769885 C16.2875351,111.861909 24.2786624,120.041195 28.7866527,117.565222 C33.294643,115.089249 30.0846005,107.899017 24.9218292,97.746873 C19.7590578,87.5947286 24.9218292,67.4828881 24.9218292,56.6619566 C24.9218292,53.0384612 25.0783756,47.5754477 22.9994353,40.0362026 C19.8473067,28.6050562 14,19.6303386 14,11.5461952 C14,8.71702986 15.8483468,4.86829812 19.5450403,0 Z" id="Rectangle"></path>
                <path d="M22.2363686,75.3191745 C23.7337937,67.7408541 34.6752537,56.8140744 37.1270345,50.4503971 C39.1784387,45.1259104 39.9426552,40.9757781 39.4196839,38 C41.1214095,46.0009525 41.1214095,51.5746139 39.4196839,54.720984 C33.6260833,65.4329409 32.0365931,71.0901096 31.3324899,77.3384801 C29.5846149,92.8495185 44.8506434,107.445356 43.9626722,117.613591 C43.568368,122.128803 39.5567972,122.128803 31.9279601,117.613591 C24.2880664,95.3832687 21.0575359,81.28513 22.2363686,75.3191745 Z" id="Rectangle"></path>
                <path d="M25.2904962,85.6967213 C30.7581044,74.8051188 34.7953352,70.0879584 37.9679794,49.0931298 C40.0811373,35.1094043 29.0717234,8.54601713 22.1670789,3 C28.4738864,8.32657339 30.6527288,11.8157917 33.9368776,17.4182928 C41.6534509,30.5821639 45.7483469,45.3837186 44.8867869,54.3308623 C42.748039,76.5413714 42.5832589,73.6068037 33.9368776,92.0318367 C32.4930648,95.1085338 29.6109377,103.431255 25.2904962,117 L13,117 C18.7511956,100.996602 22.8480277,90.5621754 25.2904962,85.6967213 Z" id="Rectangle" transform="translate(29.000000, 60.000000) scale(-1, 1) translate(-29.000000, -60.000000) "></path>
            </g>
            <g id="sw-left-front" transform="translate(0.000000, 54.779685)" fill="#1A1323">
                <path d="M24.3448245,95.7335312 C26.7007819,83.7379327 49.0515445,72.9285733 53.1309274,49.7202562 C54.942325,39.4149014 48.5379987,22.8414827 33.9179487,9.23705556e-14 C41.1918424,6.49682814 46.2363743,11.8096335 49.0515445,15.938416 C58.9735071,30.4901563 64.2387204,46.8522416 63.1309274,56.7426842 C60.3809274,81.2948513 49.0515445,78.7203152 37.9340357,99.0879026 C36.0775827,102.488977 34.738887,108.533114 33.9179487,117.220315 L22.1309274,126.01904 C21.7521554,115.272113 22.4901211,105.176944 24.3448245,95.7335312 Z" id="Rectangle"></path>
                <path d="M0.352730523,69.2203152 C2.40924152,58.8447383 10.0245175,50.7510122 18.2271755,39.7203152 C20.7654414,36.3069288 22.1910174,31.4799422 22.5039036,25.2393554 C24.8409937,30.2266619 24.6845506,36.1382365 22.0345743,42.9740791 C15.2424777,60.4948788 10.4181297,63.5069884 10.4181297,72.9285733 C10.4181297,82.6340845 15.8456805,99.4838999 26.7007819,123.478019 L12.2150339,134.239355 C2.68786435,99.0613956 -1.26623678,77.3883822 0.352730523,69.2203152 Z" id="Rectangle"></path>
                <path d="M19.1309274,72.9285733 C22.0345743,60.8455446 33.9179487,52.2203152 33.9179487,40.8071747 C33.9179487,32.7203152 17.6421706,24.5639471 19.1309274,11.2203152 C19.1309274,8.01175564 20.1309274,4.27165059 22.1309274,-2.84217094e-14 C22.066692,2.42107325 22.0345743,6.16117831 22.0345743,11.2203152 C22.0345743,19.4167178 42.6555355,29.4308923 42.6555355,40.8071747 C42.6555355,63.0095201 33.9179487,63.0095201 30.9171104,77.2203152 C29.4675323,84.0849494 33.3803407,97.4182827 42.6555355,117.220315 L22.1309274,126.01904 C18.1510836,98.8641764 17.1510836,81.1673541 19.1309274,72.9285733 Z" id="Rectangle"></path>
            </g>
        </g>
    </g>
</svg>