<?xml version="1.0" encoding="UTF-8"?>
<svg width="15px" height="15px" viewBox="0 0 15 15" version="1.1" xmlns="http://www.w3.org/2000/svg" xmlns:xlink="http://www.w3.org/1999/xlink">
    <!-- Generator: Sketch 54.1 (76490) - https://sketchapp.com -->
    <title>ico-refresh</title>
    <desc>Created with Sketch.</desc>
    <g id="ico" stroke="none" stroke-width="1" fill="none" fill-rule="evenodd">
        <path d="M7.5,2.24832215 C7.48289474,2.24832215 7.48289474,2.24832215 7.46578947,2.24832215 L8.28684211,1.44295302 C8.62894737,1.10738255 8.62894737,0.587248322 8.28684211,0.251677852 C7.94473684,-0.0838926174 7.41447368,-0.0838926174 7.07236842,0.251677852 L4.19868421,3.10402685 L7.07236842,5.92281879 C7.24342105,6.09060403 7.46578947,6.17449664 7.67105263,6.17449664 C7.89342105,6.17449664 8.11578947,6.09060403 8.26973684,5.92281879 C8.61184211,5.58724832 8.61184211,5.06711409 8.26973684,4.73154362 L7.44868421,3.9261745 C7.46578947,3.9261745 7.48289474,3.9261745 7.5,3.9261745 C10.1342105,3.9261745 12.2894737,6.04026846 12.2894737,8.62416107 C12.2894737,11.2080537 10.1342105,13.3221477 7.5,13.3221477 C4.86578947,13.3221477 2.71052632,11.2080537 2.71052632,8.62416107 C2.71052632,8.15436242 2.33421053,7.7852349 1.85526316,7.7852349 C1.37631579,7.7852349 1,8.15436242 1,8.62416107 C1,12.147651 3.90789474,15 7.5,15 C11.0921053,15 14,12.147651 14,8.62416107 C14,5.11744966 11.0921053,2.24832215 7.5,2.24832215 Z" id="Path" fill="#FFFFFF" fill-rule="nonzero"></path>
    </g>
</svg>