<?xml version="1.0" encoding="UTF-8"?>
<svg width="13px" height="13px" viewBox="0 0 13 13" version="1.1" xmlns="http://www.w3.org/2000/svg" xmlns:xlink="http://www.w3.org/1999/xlink">
    <!-- Generator: Sketch 54.1 (76490) - https://sketchapp.com -->
    <title>ico-import</title>
    <desc>Created with Sketch.</desc>
    <g id="ico" stroke="none" stroke-width="1" fill="none" fill-rule="evenodd">
        <path d="M11.7,8.45 L11.7,11.05 C11.7,11.4089851 11.4089851,11.7 11.05,11.7 L1.95,11.7 C1.59101491,11.7 1.3,11.4089851 1.3,11.05 L1.3,8.45 C1.3,8.09101491 1.00898509,7.8 0.65,7.8 C0.291014913,7.8 0,8.09101491 0,8.45 L0,11.05 C0,12.1269553 0.873044738,13 1.95,13 L11.05,13 C12.1269553,13 13,12.1269553 13,11.05 L13,8.45 C13,8.09101491 12.7089851,7.8 12.35,7.8 C11.9910149,7.8 11.7,8.09101491 11.7,8.45 Z" id="Path" fill="#CECECE" fill-rule="nonzero"></path>
        <path d="M6.5,7.53076118 L3.70961941,4.74038059 C3.45577862,4.4865398 3.04422138,4.4865398 2.79038059,4.74038059 C2.5365398,4.99422138 2.5365398,5.40577862 2.79038059,5.65961941 L6.04038059,8.90961941 C6.29422138,9.1634602 6.70577862,9.1634602 6.95961941,8.90961941 L10.2096194,5.65961941 C10.4634602,5.40577862 10.4634602,4.99422138 10.2096194,4.74038059 C9.95577862,4.4865398 9.54422138,4.4865398 9.29038059,4.74038059 L6.5,7.53076118 Z" id="Path" fill="#CECECE" fill-rule="nonzero"></path>
        <path d="M7.15,8.45 L7.15,0.65 C7.15,0.291014913 6.85898509,0 6.5,0 C6.14101491,0 5.85,0.291014913 5.85,0.65 L5.85,8.45 C5.85,8.80898509 6.14101491,9.1 6.5,9.1 C6.85898509,9.1 7.15,8.80898509 7.15,8.45 Z" id="Path" fill="#CECECE" fill-rule="nonzero"></path>
    </g>
</svg>