<?xml version="1.0" encoding="UTF-8"?>
<svg width="11px" height="11px" viewBox="0 0 11 11" version="1.1" xmlns="http://www.w3.org/2000/svg" xmlns:xlink="http://www.w3.org/1999/xlink">
    <!-- Generator: Sketch 54.1 (76490) - https://sketchapp.com -->
    <title>ico-warning-small</title>
    <desc>Created with Sketch.</desc>
    <g id="ico" stroke="none" stroke-width="1" fill="none" fill-rule="evenodd">
        <path d="M10.8478113,8.69922602 L6.30477552,1.42217613 C6.13718324,1.16047064 5.83289708,1 5.50424059,1 C5.17558409,1 4.87129793,1.16047064 4.70370565,1.42217613 L0.124645834,8.75295169 C-0.0415486115,9.0115443 -0.0415486115,9.33359115 0.124645834,9.59218377 C0.292933161,9.85138302 0.598586513,10.0069994 0.925180768,9.99975784 L10.0712924,9.99975784 C10.3152137,10.004227 10.5508711,9.91790399 10.7254402,9.76013886 C10.9000092,9.60237372 10.9988883,9.3863625 10.9999129,9.16052577 C11.0024556,8.99583417 10.9492707,8.83453301 10.8478113,8.69922602 L10.8478113,8.69922602 Z M5.5,3 C5.77614237,3 6,3.23266188 6,3.51966485 L5.87307692,6.61366942 C5.87307825,6.71632425 5.83371078,6.8147457 5.76368945,6.88714582 C5.69366812,6.95954593 5.5987689,6.99995253 5.5,6.99942064 C5.39994261,7.00527708 5.30222866,6.96651984 5.2313653,6.89286944 C5.16050194,6.81921905 5.12321133,6.71766204 5.12884615,6.61366942 L5,3.51966485 C5,3.23266188 5.22385763,3 5.5,3 Z M5.84894011,8.85811604 C5.67832772,9.02435279 5.41412708,9.04713815 5.21757179,8.91256691 C5.02101651,8.77799567 4.94669764,8.52344351 5.03996975,8.30425586 C5.13324185,8.08506822 5.36819962,7.96212206 5.60145547,8.01044767 C5.83471133,8.05877329 6.00148102,8.26494878 5.99999008,8.50315151 C5.99898466,8.63688032 5.94460642,8.76466813 5.84894011,8.85811604 Z" id="Shape" fill="#FFFFFF" fill-rule="nonzero"></path>
    </g>
</svg>