<?xml version="1.0" encoding="UTF-8"?>
<svg width="15px" height="15px" viewBox="0 0 15 15" version="1.1" xmlns="http://www.w3.org/2000/svg" xmlns:xlink="http://www.w3.org/1999/xlink">
    <!-- Generator: Sketch 54.1 (76490) - https://sketchapp.com -->
    <title>ico-refresh</title>
    <desc>Created with Sketch.</desc>
    <g id="ico" stroke="none" stroke-width="1" fill="none" fill-rule="evenodd">
        <path d="M10.9086559,5.27869386 L10.9086559,1.86960295 C10.9086559,1.49304517 10.6033955,1.18778477 10.2268377,1.18778477 C9.85027991,1.18778477 9.54501951,1.49304517 9.54501951,1.86960295 L9.54501951,5.96051204 C9.54501951,6.33706983 9.85027991,6.64233022 10.2268377,6.64233022 L14.3177468,6.64233022 C14.6943046,6.64233022 14.999565,6.33706983 14.999565,5.96051204 C14.999565,5.58395426 14.6943046,5.27869386 14.3177468,5.27869386 L10.9086559,5.27869386 Z" id="Path" fill="#FFFFFF" fill-rule="nonzero" transform="translate(12.272292, 3.915057) scale(-1, 1) translate(-12.272292, -3.915057) "></path>
        <path d="M1.75010981,9.584002 C2.75920557,12.4481815 5.54089708,14.2997576 8.57262132,14.1252673 C11.6043456,13.950777 14.1552384,11.792285 14.8290647,8.83124524 C15.5028911,5.87020543 14.1372103,2.8204419 11.4795297,1.35124729 C8.82184917,-0.117947312 5.51286154,0.347608849 3.36374618,2.49309291 L0.21492712,5.45146884 C-0.0594905191,5.70932679 -0.0729147963,6.14082142 0.184943157,6.41523905 C0.442801111,6.68965669 0.874295734,6.70308097 1.14871337,6.44522302 L4.31234974,3.47249574 C6.04645933,1.74175715 8.69364944,1.36931222 10.8197939,2.5446679 C12.9459383,3.72002359 14.038483,6.15983441 13.4994219,8.52866626 C12.9603608,10.8974981 10.9196465,12.6242917 8.49426716,12.7638839 C6.06888777,12.9034762 3.84353456,11.4222153 3.03625795,9.13087167 C2.91112947,8.77571167 2.52177872,8.58923428 2.16661872,8.71436277 C1.81145871,8.83949125 1.62498133,9.228842 1.75010981,9.584002 Z" id="Path" fill="#FFFFFF" fill-rule="nonzero" transform="translate(7.499782, 7.318310) scale(-1, 1) translate(-7.499782, -7.318310) "></path>
    </g>
</svg>