<?xml version="1.0" encoding="UTF-8"?>
<svg width="76px" height="30px" viewBox="0 0 76 30" version="1.1" xmlns="http://www.w3.org/2000/svg" xmlns:xlink="http://www.w3.org/1999/xlink">
    <!-- Generator: Sketch 54.1 (76490) - https://sketchapp.com -->
    <title>kelp-logo</title>
    <desc>Created with Sketch.</desc>
    <g id="kelp-logo" stroke="none" stroke-width="1" fill="none" fill-rule="evenodd">
        <path d="M33.6382857,15.588576 L40.9977143,7.43317059 L44.1914286,7.43317059 L37.9428571,14.2331706 L44.8394286,24.088576 L41.7151429,24.088576 L36.184,16.1399273 L33.6382857,18.9196571 L33.6382857,24.088576 L31,24.088576 L31,7.43317059 L33.6382857,7.43317059 L33.6382857,15.588576 Z M53.6269075,20.4588463 L56.0569075,20.4588463 C55.4783361,22.5034409 53.6269075,24.3872246 50.4563361,24.3872246 C46.429479,24.3872246 44.2540504,21.4696571 44.2540504,17.8858733 C44.2540504,14.0493868 46.8460504,11.4993868 50.3869075,11.4993868 C54.2286218,11.4993868 56.473479,14.6237111 56.2189075,18.6439814 L46.7303361,18.6439814 C46.9617647,20.9183057 48.4197647,22.34263 50.3637647,22.34263 C52.099479,22.34263 53.1177647,21.6304679 53.6269075,20.4588463 Z M46.7766218,16.7601976 L53.719479,16.7601976 C53.6500504,14.9223598 52.3540504,13.4520895 50.3637647,13.4520895 C48.4891932,13.4520895 47.1006218,14.4169544 46.7766218,16.7601976 Z M60.1695293,24.088576 L57.7626722,24.088576 L57.7626722,7.43317059 L60.1695293,7.43317059 L60.1695293,24.088576 Z M64.9995797,11.7291165 L64.9995797,13.5439814 C65.763294,12.2804679 67.059294,11.4993868 68.8875797,11.4993868 C71.7804369,11.4993868 74.2567226,13.911549 74.2567226,17.9318192 C74.2567226,21.9750625 71.7804369,24.3872246 68.8875797,24.3872246 C67.059294,24.3872246 65.763294,23.6061436 64.9995797,22.34263 L64.9995797,28.1088463 L62.5927226,28.1088463 L62.5927226,11.7291165 L64.9995797,11.7291165 Z M68.3321512,22.388576 C70.3224369,22.388576 71.6878654,20.711549 71.6878654,17.9318192 C71.6878654,15.1520895 70.3224369,13.4980355 68.3321512,13.4980355 C66.4807226,13.4980355 64.9070083,14.8764138 64.9070083,17.9318192 C64.9070083,20.9872246 66.4807226,22.388576 68.3321512,22.388576 Z" id="Kelp" fill="#FFFFFF" fill-rule="nonzero"></path>
        <g id="Group-7-Copy-2" fill="#FFFFFF">
            <path d="M0.0930232558,0.557692308 L1.80169731,0.557692308 C3.85739228,0.557692308 6.08205411,4.11605546 6.08205411,6.31397874 C6.08205411,12.8279832 6.08205411,18.2298202 6.08205411,22.5194898 C6.08205411,25.0567384 6.2763988,27.1927282 7.16214028,28.5902451 C7.1862288,28.6282518 6.54122068,28.6377184 5.22711592,28.618645 C2.76974464,28.619067 0.472800211,26.7424969 0.472800211,22.2025977 C0.472800211,14.0243526 0.472800211,7.89066874 0.472800211,3.8015462 C0.472800211,3.08068978 0.346207892,1.99940515 0.0930232558,0.557692308 Z" id="Rectangle-Copy-30"></path>
            <path d="M16.9612336,0 L18.1243121,3.74909457 C18.7534478,5.72424579 17.8129184,7.80363125 16.613113,8.98909221 C13.5662066,12.372745 10.5414475,15.8208254 7.53883579,19.3333333 C7.53883579,16.6641728 7.53883579,14.8213596 7.53883579,13.8048939 C7.53883579,12.2760348 7.41090908,10.1745532 8.61071448,8.98909221 L16.9612336,0 Z" id="Rectangle-Copy-31"></path>
            <path d="M23.9069767,28.4912077 C22.7127971,28.7798953 21.1473801,28.9494927 19.210726,29 C16.9231056,29 14.8746288,27.6449741 13.9037174,26.2885152 C11.4837755,23.4419998 9.79493951,21.4418027 8.8372093,20.2879238 C9.49407017,19.5713539 11.4956239,17.2106448 12.7505662,15.9871795 C17.4915664,21.8908658 21.2103699,26.0588752 23.9069767,28.4912077 Z" id="Rectangle-Copy-31"></path>
        </g>
    </g>
</svg>