<?xml version="1.0" encoding="UTF-8"?>
<svg width="144px" height="165px" viewBox="0 0 144 165" version="1.1" xmlns="http://www.w3.org/2000/svg" xmlns:xlink="http://www.w3.org/1999/xlink">
    <!-- Generator: Sketch 54.1 (76490) - https://sketchapp.com -->
    <title>kelp-symbol</title>
    <desc>Created with Sketch.</desc>
    <g id="kelp-symbol" stroke="none" stroke-width="1" fill="none" fill-rule="evenodd">
        <path d="M8.5,8 L17.684123,8 C28.7334835,8 40.6910408,27.1415397 40.6910408,38.9648512 C40.6910408,74.0057026 40.6910408,103.06386 40.6910408,126.139325 C40.6910408,139.787972 41.7356435,151.278124 46.496504,158.795801 C46.6259798,159.000251 43.1590612,159.051175 36.0957481,158.948573 C22.8873774,158.950843 10.5413011,148.85619 10.5413011,124.434663 C10.5413011,80.4413448 10.5413011,47.446356 10.5413011,25.4496968 C10.5413011,21.5719864 9.86086742,15.7554208 8.5,8 Z" id="Rectangle-Copy-30" fill="#FFFFFF"></path>
        <path d="M99.1666304,5 L105.418177,25.1675432 C108.799782,35.7924946 103.744436,46.9781543 97.2954822,53.3551167 C80.9183605,71.5568352 64.6602805,90.1051296 48.5212424,109 C48.5212424,94.6417569 48.5212424,84.728693 48.5212424,79.2608083 C48.5212424,71.0366008 47.8336363,59.7320792 54.2825903,53.3551167 L99.1666304,5 Z" id="Rectangle-Copy-31" fill="#FFFFFF"></path>
        <path d="M136.5,158.263048 C130.081284,159.815988 121.667168,160.728306 111.257652,161 C98.9616926,161 87.95113,153.710895 82.7324811,146.414082 C69.7252936,131.101792 60.6477999,120.342111 55.5,114.135039 C59.0306272,110.280386 69.7889782,97.5813994 76.5342931,91 C102.017169,122.757761 122.005738,145.178777 136.5,158.263048 Z" id="Rectangle-Copy-31" fill="#FFFFFF"></path>
    </g>
</svg>